<svg xmlns="http://www.w3.org/2000/svg" width="25" height="25.049" viewBox="0 0 25 25.049">
  <path id="Path_4364" data-name="Path 4364" d="M1175-283.073a.572.572,0,0,1-.012.11.492.492,0,0,1-.037.11,1,1,0,0,1,.037.171,1.608,1.608,0,0,1,.012.2v5.225a1.971,1.971,0,0,1-.33,1.11,2.015,2.015,0,0,1-.866.745.444.444,0,0,1-.122.122.592.592,0,0,1-.147.073l-8.057,3.15-1.391.024h-2.368a.751.751,0,0,1-.55-.232.75.75,0,0,1-.232-.549v-.781a.74.74,0,0,1,.232-.562.774.774,0,0,1,.55-.219h2.343a.775.775,0,0,1,.55.219.744.744,0,0,1,.232.562v.122l5.029-1.978a2.167,2.167,0,0,1-.793-.744,1.925,1.925,0,0,1-.306-1.062v-5.225a2.016,2.016,0,0,1,.6-1.465,1.988,1.988,0,0,1,1.477-.61h2.075a2.147,2.147,0,0,1,.232.012c.073.008.15.021.232.037q-.025-.439-.049-.83c-.017-.261-.033-.456-.049-.586a10.658,10.658,0,0,0-1.135-3.833,10.68,10.68,0,0,0-2.344-3.04,10.63,10.63,0,0,0-3.284-2,10.835,10.835,0,0,0-3.955-.72,10.58,10.58,0,0,0-4.126.806,10.944,10.944,0,0,0-3.393,2.209,10.932,10.932,0,0,0-2.356,3.32,11.2,11.2,0,0,0-1.013,4.163c0,.033-.005.094-.013.183s-.012.2-.012.33a1.575,1.575,0,0,1,.208-.037,1.9,1.9,0,0,1,.207-.012h2.1a1.989,1.989,0,0,1,1.477.61,2.023,2.023,0,0,1,.6,1.465v5.249a2.021,2.021,0,0,1-.6,1.465,1.985,1.985,0,0,1-1.477.61h-2.1a2,2,0,0,1-1.465-.61,2,2,0,0,1-.61-1.465v-5.249a2.126,2.126,0,0,1,.012-.232,1.416,1.416,0,0,1,.037-.207v-.367q0-.463.036-1.086t.037-.745a12.84,12.84,0,0,1,1.172-4.736,12.5,12.5,0,0,1,2.7-3.8,12.48,12.48,0,0,1,3.869-2.515,12.135,12.135,0,0,1,4.712-.916,12.288,12.288,0,0,1,4.517.831,12.418,12.418,0,0,1,3.76,2.282,11.972,11.972,0,0,1,2.685,3.479,12.535,12.535,0,0,1,1.318,4.395q.049.416.1,1.526t.049,1.5Zm-22.925.073a.5.5,0,0,0-.366.147.5.5,0,0,0-.147.366v5.249a.508.508,0,0,0,.147.354.478.478,0,0,0,.366.159h2.1a.478.478,0,0,0,.366-.159.506.506,0,0,0,.146-.354v-5.249a.494.494,0,0,0-.146-.366.5.5,0,0,0-.366-.147Zm18.262.513v5.225a.513.513,0,0,0,.146.354.478.478,0,0,0,.367.158h2.075a.477.477,0,0,0,.366-.158.508.508,0,0,0,.146-.354v-5.225a.494.494,0,0,0-.146-.366.5.5,0,0,0-.366-.147h-2.075a.5.5,0,0,0-.367.147.5.5,0,0,0-.146.366Z" transform="translate(-1149.996 297.087)" fill="#fff"/>
</svg>
