<svg xmlns="http://www.w3.org/2000/svg" width="77.971" height="71.465" viewBox="0 0 77.971 71.465">
  <g id="Group_695" data-name="Group 695" transform="translate(-1077.377 -568.304)">
    <g id="Group_684" data-name="Group 684" transform="translate(1077.377 637.169)">
      <g id="Group_683" data-name="Group 683">
        <path id="Path_4384" data-name="Path 4384" d="M1154.049,622.267h-75.373a1.3,1.3,0,0,0,0,2.6h75.373a1.3,1.3,0,0,0,0-2.6Z" transform="translate(-1077.377 -622.267)" fill="#212121"/>
      </g>
    </g>
    <g id="Group_686" data-name="Group 686" transform="translate(1085.185 618.66)">
      <g id="Group_685" data-name="Group 685">
        <path id="Path_4385" data-name="Path 4385" d="M1098.655,613.249a1.3,1.3,0,0,0-1.05-.884l-3.688-.536-1.648-3.341a1.3,1.3,0,0,0-2.33,0l-1.646,3.341-3.691.537a1.3,1.3,0,0,0-.72,2.21l2.667,2.6-.629,3.674a1.3,1.3,0,0,0,1.884,1.371l3.3-1.734,3.3,1.741a1.3,1.3,0,0,0,1.887-1.372l-.63-3.671,2.67-2.6A1.3,1.3,0,0,0,1098.655,613.249Zm-5.3,2.547a1.3,1.3,0,0,0-.373,1.151l.3,1.751-1.572-.827a1.3,1.3,0,0,0-1.207,0l-1.572.827.3-1.751a1.3,1.3,0,0,0-.373-1.151l-1.272-1.238,1.758-.262a1.3,1.3,0,0,0,.979-.709l.786-1.593.786,1.591a1.3,1.3,0,0,0,.979.711l1.757.26Z" transform="translate(-1083.496 -607.764)" fill="#212121"/>
      </g>
    </g>
    <g id="Group_688" data-name="Group 688" transform="translate(1085.168 572.969)">
      <g id="Group_687" data-name="Group 687">
        <path id="Path_4386" data-name="Path 4386" d="M1140.516,601.164l-13.22-13.216a1.3,1.3,0,0,0-1.836,0h0l-9.482,9.474-8.683-8.683a11.713,11.713,0,0,0,9.982-11.571v-.223a3.9,3.9,0,0,0-7.8,0v0a4.127,4.127,0,0,1-4.121,4.122,19.584,19.584,0,0,0-6.691,1.191,7.8,7.8,0,1,0-7.893,5.282l-.4.408a14.165,14.165,0,0,0,0,20.03l.491.491a4.054,4.054,0,1,0,5.727-5.739l-.491-.491a6.065,6.065,0,0,1-.819-7.538l18.073,18.069h-10.374a1.3,1.3,0,0,0,0,2.6h12.97l1.326,1.326v11.667a5.192,5.192,0,0,0,.7,2.6h-8.5a1.3,1.3,0,0,0,0,2.6h12.994a5.2,5.2,0,0,0,5.2-5.2V612.248a1.307,1.307,0,0,0-.383-.919l-5.579-5.579,4.66-4.651,7.107,7.1a4.976,4.976,0,0,0,7.111-6.961l-.075-.074Zm-54.431-21.4a5.2,5.2,0,1,1,5.2,5.2,5.2,5.2,0,0,1-5.2-5.2Zm52.569,26.6a2.36,2.36,0,0,1-3.338-.008l-8.019-8.012a1.3,1.3,0,0,0-1.836,0h0l-6.493,6.5a1.3,1.3,0,0,0,0,1.838h0l6.108,6.114v15.57a2.6,2.6,0,1,1-5.2.077V616.147a1.3,1.3,0,0,0-.381-.919L1096.1,591.836a1.3,1.3,0,0,0-1.838,0h0a8.659,8.659,0,0,0,0,12.234l.491.491a1.457,1.457,0,0,1-2.061,2.061l-.491-.491a11.566,11.566,0,0,1,0-16.356l1.142-1.141a16.866,16.866,0,0,1,12.011-4.976,6.728,6.728,0,0,0,6.72-6.715,1.3,1.3,0,1,1,2.6,0v.222a9.106,9.106,0,0,1-9.1,9.1,1.3,1.3,0,0,0-1.3,1.3v1.3a1.3,1.3,0,0,0,.383.919l10.4,10.4a1.3,1.3,0,0,0,1.838,0h0l9.478-9.475,12.3,12.3a2.377,2.377,0,0,1-.018,3.361h0Z" transform="translate(-1083.482 -571.959)" fill="#212121"/>
      </g>
    </g>
    <g id="Group_690" data-name="Group 690" transform="translate(1102.068 631.971)">
      <g id="Group_689" data-name="Group 689">
        <path id="Path_4387" data-name="Path 4387" d="M1100.624,618.194h-2.6a1.3,1.3,0,0,0,0,2.6h2.6a1.3,1.3,0,0,0,0-2.6Z" transform="translate(-1096.725 -618.194)" fill="#212121"/>
      </g>
    </g>
    <g id="Group_692" data-name="Group 692" transform="translate(1095.57 613.777)">
      <g id="Group_691" data-name="Group 691">
        <path id="Path_4388" data-name="Path 4388" d="M1095.533,603.937h-2.6a1.3,1.3,0,1,0,0,2.6h2.6a1.3,1.3,0,0,0,0-2.6Z" transform="translate(-1091.633 -603.937)" fill="#212121"/>
      </g>
    </g>
    <g id="Group_694" data-name="Group 694" transform="translate(1134.556 568.304)">
      <g id="Group_693" data-name="Group 693">
        <path id="Path_4389" data-name="Path 4389" d="M1141.676,570.123a1.271,1.271,0,0,0-.26.026h.009a10.622,10.622,0,0,1-7.6-1.322l-.57-.345c-.036-.018-.073-.034-.11-.048s-.075-.035-.114-.05a1.3,1.3,0,0,0-.895,0c-.038.017-.077.032-.114.05a1.068,1.068,0,0,0-.11.048l-.57.345a10.612,10.612,0,0,1-7.6,1.322,1.3,1.3,0,0,0-1.535,1.012,1.277,1.277,0,0,0-.027.262v13.087a10.224,10.224,0,0,0,1.442,5.236,10.089,10.089,0,0,0,4.7,4.121l3.74,1.611a1.294,1.294,0,0,0,1.022,0l3.742-1.612a10.1,10.1,0,0,0,4.7-4.122,10.221,10.221,0,0,0,1.448-5.236V571.422a1.3,1.3,0,0,0-1.3-1.3Zm-10.392,22.186-1.927-.829a7.511,7.511,0,0,1-3.494-3.065,7.639,7.639,0,0,1-1.075-3.9v-11.6a13.166,13.166,0,0,0,6.5-1.14Zm8.023-3.895a7.515,7.515,0,0,1-3.494,3.067l-1.935.828V571.775a13.166,13.166,0,0,0,6.5,1.14l.005,11.6a7.625,7.625,0,0,1-1.073,3.9Z" transform="translate(-1122.183 -568.304)" fill="#212121"/>
      </g>
    </g>
  </g>
</svg>
