<svg xmlns="http://www.w3.org/2000/svg" width="63.098" height="71.465" viewBox="0 0 63.098 71.465">
  <g id="Group_696" data-name="Group 696" transform="translate(-935.271 -512.463)">
    <path id="Path_4390" data-name="Path 4390" d="M991.785,551.786a1.047,1.047,0,0,0-1.3,1.642,15.124,15.124,0,0,1,5.787,11.936v16.469H981.663a2.6,2.6,0,0,0,.069-.595v-5.889a10.329,10.329,0,0,0-9.648-10.293l9.25-14.889a15.114,15.114,0,0,1,5.247,1.025,1.046,1.046,0,0,0,.758-1.95,17.206,17.206,0,0,0-6.263-1.169h-2.86l-2.669-2.564v-1.945a12.632,12.632,0,0,0,3.753-6.92,7.036,7.036,0,0,0,4.161-4.362,5.458,5.458,0,0,0-.1-3.767,4.241,4.241,0,0,0-2.6-2.483,2.822,2.822,0,0,0-1.244-.124v-.754a12.7,12.7,0,0,0-17.086-11.908,1.047,1.047,0,0,0,.725,1.964h0a10.6,10.6,0,0,1,12.961,4.848,6.055,6.055,0,0,0-2.711-.635H960.241a6.066,6.066,0,0,0-2.707.632,10.581,10.581,0,0,1,2.067-2.662,1.046,1.046,0,1,0-1.385-1.568l-.041.037a12.736,12.736,0,0,0-4.048,9.293v.753a2.847,2.847,0,0,0-1.242.124c-2.363.77-3.581,3.573-2.711,6.252a7.046,7.046,0,0,0,4.161,4.362,12.637,12.637,0,0,0,3.753,6.92v1.969l-2.642,2.539h-2.885a17.314,17.314,0,0,0-17.293,17.293v16.678a1.886,1.886,0,0,0,1.884,1.884h59.331a1.886,1.886,0,0,0,1.884-1.884V565.365a17.207,17.207,0,0,0-6.584-13.578ZM953.93,570.872a1.045,1.045,0,0,0,1.479.015h0l13.425-13.162.144.213a2.19,2.19,0,0,0,1.649.965c.06.005.121.008.181.008a2.187,2.187,0,0,0,1.6-.693l4.29-4.56-17.5,28.172H944.246l7.873-7.719a1.046,1.046,0,0,0-1.465-1.494l-9.4,9.216h-3.895V567.124h18.9l-2.315,2.269A1.046,1.046,0,0,0,953.93,570.872Zm20.51-23.528,2.719,2.615a.111.111,0,0,1,0,.156l-6.277,6.67a.107.107,0,0,1-.091.033.11.11,0,0,1-.083-.048l-2.847-4.232c-.023-.033-.047-.066-.073-.1Zm-3.024,19.78a8.233,8.233,0,0,1,8.224,8.224v5.891a.6.6,0,0,1-.595.595H961.661l9.137-14.709Zm-15.115-31.5a1.047,1.047,0,0,0-.987-.921c-1.123-.056-2.652-1.549-3.147-3.072a2.769,2.769,0,0,1,1.365-3.614.789.789,0,0,1,.243-.052c.152,0,.318.087.547.41a1.047,1.047,0,0,0,1.172.389c1.089-.263.644-2.425.727-3.234a4.025,4.025,0,0,1,4.02-4.022H973.4a4.024,4.024,0,0,1,4.02,4.02c.144.969-.48,2.7.727,3.235a1.047,1.047,0,0,0,1.17-.389c.355-.5.556-.433.79-.359a2.177,2.177,0,0,1,1.318,1.293,3.369,3.369,0,0,1,.048,2.321c-.5,1.524-2.024,3.017-3.147,3.073a1.046,1.046,0,0,0-.986.92,10.6,10.6,0,0,1-10.518,9.327,10.722,10.722,0,0,1-7.256-2.876A10.534,10.534,0,0,1,956.3,535.629Zm10.518,11.419a12.641,12.641,0,0,0,6.636-1.876v.291l-6.625,5.079-6.646-5.1v-.271a12.637,12.637,0,0,0,6.636,1.877ZM956.5,549.96l2.721-2.615,6.646,5.1a1.12,1.12,0,0,0-.073.1l-2.847,4.232a.112.112,0,0,1-.154.029l-.019-.015-6.276-6.672a.11.11,0,0,1,.005-.156Zm-3.943.206h1.826a2.2,2.2,0,0,0,.592,1.385l6.277,6.669a2.2,2.2,0,0,0,3.114.094,2.106,2.106,0,0,0,.318-.374l2.144-3.185.812,1.206-9.253,9.072H937.367a15.219,15.219,0,0,1,15.2-14.868Z" fill="#212121"/>
    <path id="Path_4391" data-name="Path 4391" d="M955.881,528.295a1.677,1.677,0,1,0-1.678-1.678,1.678,1.678,0,0,0,1.678,1.678Z" transform="translate(5.228 3.446)" fill="#212121"/>
    <path id="Path_4392" data-name="Path 4392" d="M964.832,528.295a1.677,1.677,0,1,0-1.678-1.678h0A1.677,1.677,0,0,0,964.832,528.295Z" transform="translate(7.7 3.446)" fill="#212121"/>
    <path id="Path_4393" data-name="Path 4393" d="M958.073,533.281h5.042a1.046,1.046,0,0,0,0-2.093h-5.042a1.046,1.046,0,1,0,0,2.093Z" transform="translate(6.008 5.171)" fill="#212121"/>
  </g>
</svg>
