<svg xmlns="http://www.w3.org/2000/svg" width="72.046" height="72.045" viewBox="0 0 72.046 72.045">
  <g id="death" transform="translate(-948.368 -571.005)">
    <g id="Group_699" data-name="Group 699" transform="translate(948.368 571.005)">
      <path id="Path_4448" data-name="Path 4448" d="M1017.247,636.718h-9.738q.6-.353,1.175-.763a15.3,15.3,0,0,0,6.168-9.724l.006-.032,2.82-18.568a1.055,1.055,0,1,0-2.087-.316l-2.819,18.552a13.253,13.253,0,0,1-26.285-2.4c0-.4.018-.807.057-1.222l1.221-15.232h7.341a3.867,3.867,0,0,0,3.861-3.863V588.459a7.525,7.525,0,0,0-8.718-7.43l.76-5.159a3.21,3.21,0,0,1,3.565-2.727,2.651,2.651,0,0,1,2.326,1.775,4.746,4.746,0,0,1,.275,1.806l-.624,4.224a1.056,1.056,0,0,0,2.089.307l.627-4.251.005-.037c.609-3.312,4.014-2.1,3.692.071l-.208,1.419,0,.016-.722,4.888a1.056,1.056,0,0,0,2.089.307l.7-4.734a1.83,1.83,0,0,1,3.438,1.117l-.471,3.187-.005.035-.546,3.7a1.055,1.055,0,0,0,2.088.309l.524-3.552a1.829,1.829,0,0,1,3.384,1.213l-.606,4.109,0,.032-.488,3.305a1.055,1.055,0,0,0,2.088.307l.477-3.233a1.831,1.831,0,0,1,3.512.952l-1.612,10.924c-.075.5-.161,1-.257,1.481a1.055,1.055,0,1,0,2.07.412c.1-.518.2-1.051.275-1.584l1.612-10.924a3.944,3.944,0,0,0-5.15-4.324l.17-1.148a3.945,3.945,0,0,0-5.052-4.361l.078-.531a59.38,59.38,0,0,1-8.611-7.5,3.559,3.559,0,0,0-3.047.879,4.692,4.692,0,0,0-3.836-2.686,5.328,5.328,0,0,0-5.931,4.511l-.915,6.2a7.532,7.532,0,0,0-4.091,6.694V603.15A3.862,3.862,0,0,0,985.7,606.4c-1.385,17.291-1.286,15.958-1.306,16.408-.018-.426.167,1.967-2.688-33.65-.049-1.07-.154-2.151-.31-3.21l-1.534-10.387a5.328,5.328,0,0,0-5.932-4.511,4.716,4.716,0,0,0-3.83,2.688,3.528,3.528,0,0,0-3.049-.88,14.438,14.438,0,0,1-8.4,5.5,3.947,3.947,0,0,0-.218,2l.079.531a3.947,3.947,0,0,0-5.054,4.36l.168,1.148a3.943,3.943,0,0,0-5.147,4.327l1.613,10.923c.13.881.3,1.768.5,2.635l3.33,21.917.005.032a15.258,15.258,0,0,0,2.6,6.147,1.055,1.055,0,1,0,1.719-1.225h0a13.17,13.17,0,0,1-2.237-5.288l-3.332-21.942c-.005-.028-.01-.057-.017-.084-.193-.823-.354-1.665-.479-2.5l-1.612-10.924a1.831,1.831,0,0,1,3.514-.95l.477,3.229a1.055,1.055,0,0,0,2.088-.307l-.493-3.337v-.005l-.606-4.1a1.831,1.831,0,0,1,3.385-1.213l.524,3.552a1.055,1.055,0,0,0,2.088-.308l-.551-3.735-.471-3.188a1.83,1.83,0,0,1,3.438-1.115l.7,4.734a1.055,1.055,0,0,0,2.088-.307l-.722-4.888h0l-.212-1.435a1.841,1.841,0,0,1,1.542-2.092,1.522,1.522,0,0,1,1.669.78,3.82,3.82,0,0,1,.486,1.275l.629,4.255a1.055,1.055,0,0,0,2.088-.307l-.624-4.221c-.03-.431-.12-3.219,2.6-3.583a3.208,3.208,0,0,1,3.564,2.726l1.533,10.387q.222,1.5.292,3.017v.036l2.641,32.947a13.253,13.253,0,0,1-21.071,11.867,1.055,1.055,0,1,0-1.253,1.7,15.518,15.518,0,0,0,1.356.9h-9.738a3.166,3.166,0,0,0,0,6.332h65.713a3.166,3.166,0,1,0,0-6.332ZM996.856,598.89h-4.908a1.29,1.29,0,0,1,0-2.581h4.908Zm-10.829-10.43a5.414,5.414,0,0,1,10.829,0V594.2h-4.908a3.4,3.4,0,1,0,0,6.8h4.908v2.15a1.752,1.752,0,0,1-1.75,1.752h-7.328a1.754,1.754,0,0,1-1.751-1.752v-14.69Zm-1.636,35.673a15.378,15.378,0,0,0,7.582,12.585H976.811A15.393,15.393,0,0,0,984.391,624.133Zm32.857,16.806H951.534a1.055,1.055,0,1,1,0-2.11h65.713a1.055,1.055,0,0,1,0,2.11Z" transform="translate(-948.368 -571.005)" fill="#212121"/>
      <path id="Path_4449" data-name="Path 4449" d="M982.6,589.282a3.8,3.8,0,1,0-3.8-3.8A3.8,3.8,0,0,0,982.6,589.282Zm0-5.487a1.689,1.689,0,1,1-1.688,1.688A1.688,1.688,0,0,1,982.6,583.8Z" transform="translate(-939.648 -567.945)" fill="#212121"/>
    </g>
  </g>
</svg>
