<svg xmlns="http://www.w3.org/2000/svg" width="107.209" height="71.465" viewBox="0 0 107.209 71.465">
  <g id="filled_outline" data-name="filled outline" transform="translate(-987.56 -512.463)">
    <rect id="Rectangle_978" data-name="Rectangle 978" width="3.573" height="16.07" transform="translate(1023.342 558.926) rotate(-0.172)" fill="#212121"/>
    <rect id="Rectangle_979" data-name="Rectangle 979" width="3.573" height="14.281" transform="translate(1023.294 544.632) rotate(-0.203)" fill="#212121"/>
    <path id="Path_4400" data-name="Path 4400" d="M1035.31,531.234a7.147,7.147,0,1,0-7.148-7.148A7.148,7.148,0,0,0,1035.31,531.234Zm0-10.721a3.573,3.573,0,1,1-3.574,3.573A3.574,3.574,0,0,1,1035.31,520.513Z" transform="translate(11.212 1.236)" fill="#212121"/>
    <path id="Path_4401" data-name="Path 4401" d="M1048.078,527.628l-10.343,5.6a5.36,5.36,0,0,0-2.084,7.288q.092.167.2.325l5.223,8.379a7.143,7.143,0,0,0,5.937,3.181h11.434v12.507a1.787,1.787,0,0,0,1.788,1.787h10.719a1.787,1.787,0,0,0,1.264-3.05l-3.05-3.05v-5.038l6.226,3.735a1.787,1.787,0,0,0,2.453-.609,1.868,1.868,0,0,0,.128-.258l3.573-8.933a1.787,1.787,0,0,0-2.458-2.273l-2.552,1.276-6.573-5.259a7.17,7.17,0,0,0-4.467-1.564H1052.25l-1.954-2.93,6.867-3.7a5.418,5.418,0,0,0,2.529-6.9l-4.085-8.326a5.011,5.011,0,0,0-9.355,3.595h0Zm21.083,19.562,6.03,4.824a1.805,1.805,0,0,0,1.343.378l-1.105,2.764-6.267-3.759Zm-17.153-19.475-2.426-5.561a1.441,1.441,0,0,1,1.786-1.833,1.525,1.525,0,0,1,.965.962l4.085,8.327a1.812,1.812,0,0,1-.909,2.287l-8.642,4.645a1.786,1.786,0,0,0-.726,2.42c.027.05.056.1.087.144l3.573,5.36a1.785,1.785,0,0,0,1.492.8H1063.8a1.787,1.787,0,0,1,1.787,1.787v14.294a1.785,1.785,0,0,0,.523,1.263l.523.523h-4.62V550.62a1.787,1.787,0,0,0-1.787-1.787h-13.222a3.546,3.546,0,0,1-2.943-1.545l-5.222-8.379a1.787,1.787,0,0,1,.494-2.478c.036-.023.072-.045.109-.066l11.768-6.374a1.787,1.787,0,0,0,.8-2.284Z" transform="translate(13.094 1.146)" fill="#212121"/>
    <path id="Path_4402" data-name="Path 4402" d="M989.347,570.224h5.538a8.936,8.936,0,0,0,8.756,7.148h.032a8.933,8.933,0,0,0,8.722-7.148h30.731a8.936,8.936,0,0,0,8.756,7.148h.032a8.933,8.933,0,0,0,8.723-7.148h5.538a1.786,1.786,0,0,0,1.787-1.787v-10.72a7.146,7.146,0,0,0-7.146-7.146h-8.04l-8.623-11.418a7.175,7.175,0,0,0-5.7-2.848h-.029l-24.987-.1a7.191,7.191,0,0,0-5.687,2.859l-8.579,11.508h-4.468a7.147,7.147,0,0,0-7.146,7.146v10.72A1.787,1.787,0,0,0,989.347,570.224Zm14.313,3.573h-.019a5.36,5.36,0,1,1-.02-10.72h.02a5.36,5.36,0,1,1,.019,10.72Zm48.241,0h-.019a5.36,5.36,0,1,1-.02-10.72h.02a5.36,5.36,0,1,1,.019,10.72Zm-13.475-33.917h.014a3.587,3.587,0,0,1,2.859,1.429l6.995,9.262H1026.91l-.042-10.739Zm-27.817,1.32a3.6,3.6,0,0,1,2.828-1.429l9.858.049.042,10.753h-19.709Zm-19.475,16.518a3.573,3.573,0,0,1,3.573-3.573h66.108a3.572,3.572,0,0,1,3.573,3.573v8.933h-3.752a8.934,8.934,0,0,0-17.51,0H1012.4a8.853,8.853,0,0,0-2.46-4.552,8.935,8.935,0,0,0-15.05,4.552h-3.752Z" transform="translate(0 6.556)" fill="#212121"/>
    <path id="Path_4403" data-name="Path 4403" d="M1003.83,535.43l8.933,5.361,1.84-3.063-5.846-3.507,5.591-2.236a1.785,1.785,0,0,0,1.031-2.224l-2.444-7.325,7.325,2.444a1.785,1.785,0,0,0,2.224-1.031l2.434-6.087,5.231,6.539,2.791-2.233-7.146-8.933a1.787,1.787,0,0,0-3.055.452l-2.947,7.371-9.123-3.039a1.787,1.787,0,0,0-2.26,2.26l3.037,9.123-7.37,2.947a1.786,1.786,0,0,0-.255,3.19Z" transform="translate(4.251)" fill="#212121"/>
  </g>
</svg>
