<svg xmlns="http://www.w3.org/2000/svg" width="75.568" height="72.045" viewBox="0 0 75.568 72.045">
  <g id="Group_703" data-name="Group 703" transform="translate(-917.885 -587.622)">
    <path id="Path_4413" data-name="Path 4413" d="M923.683,640.477a1.181,1.181,0,1,1-.013-2.362h.013a1.181,1.181,0,1,1,0,2.362Z" transform="translate(1.321 14.468)" fill="#212121"/>
    <path id="Path_4414" data-name="Path 4414" d="M974.662,632.771a1.181,1.181,0,0,1-.593-2.2,3.543,3.543,0,0,0-1.771-6.611,1.181,1.181,0,0,1,0-2.362,5.9,5.9,0,0,1,2.955,11.017,1.178,1.178,0,0,1-.59.159Z" transform="translate(15.252 9.734)" fill="#212121"/>
    <path id="Path_4415" data-name="Path 4415" d="M949.353,647.968a1.182,1.182,0,0,1-.561-2.221l31.881-17.165a1.181,1.181,0,0,1,1.118,2.079l-31.88,17.165a1.171,1.171,0,0,1-.557.142Z" transform="translate(8.678 11.7)" fill="#212121"/>
    <path id="Path_4416" data-name="Path 4416" d="M955.4,644.937a1.022,1.022,0,0,1-.153-.012l-27.157-3.542a1.18,1.18,0,0,1,.273-2.344l.032,0,27.157,3.542a1.181,1.181,0,0,1-.152,2.352Z" transform="translate(2.626 14.73)" fill="#212121"/>
    <path id="Path_4417" data-name="Path 4417" d="M930.873,650.33H919.065a1.179,1.179,0,0,1-1.18-1.178V617.269a1.179,1.179,0,0,1,1.177-1.181h11.81a1.179,1.179,0,0,1,1.181,1.178v31.883a1.179,1.179,0,0,1-1.178,1.181Zm-10.627-2.362h9.447V618.45h-9.447Z" transform="translate(0 8.156)" fill="#212121"/>
    <path id="Path_4418" data-name="Path 4418" d="M953.942,627.484a1.181,1.181,0,0,1-.176-2.349l22.809-3.472a1.181,1.181,0,0,1,.392,2.329l-.037.005-22.81,3.474a1.174,1.174,0,0,1-.178.014Z" transform="translate(9.992 9.749)" fill="#212121"/>
    <path id="Path_4419" data-name="Path 4419" d="M950.27,632.468a1.181,1.181,0,1,1,0-2.362,3.542,3.542,0,0,0,.611-7.032,1.181,1.181,0,0,1,.4-2.326,5.9,5.9,0,0,1-1.013,11.72Z" transform="translate(8.941 9.488)" fill="#212121"/>
    <path id="Path_4420" data-name="Path 4420" d="M955.021,623.9a1.227,1.227,0,0,1-.226-.022l-18.523-3.613a1.181,1.181,0,0,1,.453-2.317l18.523,3.611a1.18,1.18,0,0,1-.227,2.34Z" transform="translate(5.002 8.683)" fill="#212121"/>
    <path id="Path_4421" data-name="Path 4421" d="M938.87,620.285H928.243a1.18,1.18,0,0,1,0-2.361H938.87a1.18,1.18,0,1,1,0,2.361Z" transform="translate(2.63 8.682)" fill="#212121"/>
    <path id="Path_4422" data-name="Path 4422" d="M953.193,630.616c-.03,0-.062,0-.093,0l-14.853-1.153a1.181,1.181,0,1,1,.183-2.354h0l14.852,1.153a1.181,1.181,0,0,1-.089,2.358Z" transform="translate(5.522 11.312)" fill="#212121"/>
    <path id="Path_4423" data-name="Path 4423" d="M971.668,624.023a1.181,1.181,0,0,1-.194-2.345,6.1,6.1,0,0,1,1-.082,1.18,1.18,0,1,1,0,2.361,3.622,3.622,0,0,0-.612.051A1.231,1.231,0,0,1,971.668,624.023Z" transform="translate(15.073 9.734)" fill="#212121"/>
    <path id="Path_4424" data-name="Path 4424" d="M950.38,630.387a5.389,5.389,0,0,1-.626-.036,1.182,1.182,0,0,1-1.041-1.3A1.163,1.163,0,0,1,949.981,628l.036.005a3.425,3.425,0,0,0,.363.019,1.181,1.181,0,1,1,.075,2.361A.693.693,0,0,1,950.38,630.387Z" transform="translate(8.831 11.568)" fill="#212121"/>
    <path id="Path_4425" data-name="Path 4425" d="M940.189,621.434a1.073,1.073,0,0,1-.142-.009,1.181,1.181,0,0,1-1.032-1.312A3.542,3.542,0,0,1,942.532,617a1.181,1.181,0,0,1,0,2.362,1.175,1.175,0,0,0-1.171,1.033A1.183,1.183,0,0,1,940.189,621.434Z" transform="translate(6.052 8.417)" fill="#212121"/>
    <path id="Path_4426" data-name="Path 4426" d="M960.893,621.722a1.181,1.181,0,0,1-1.181-1.18h0a1.181,1.181,0,0,0-1.181-1.181,1.181,1.181,0,0,1,0-2.362,3.548,3.548,0,0,1,3.543,3.543,1.181,1.181,0,0,1-1.178,1.181Z" transform="translate(11.308 8.417)" fill="#212121"/>
    <path id="Path_4427" data-name="Path 4427" d="M960.367,627.115a1.179,1.179,0,0,1-1.181-1.178h0v-5.921a1.181,1.181,0,1,1,2.362,0v5.921A1.18,1.18,0,0,1,960.367,627.115Z" transform="translate(11.834 8.943)" fill="#212121"/>
    <path id="Path_4428" data-name="Path 4428" d="M963.265,619.36H942.01a1.181,1.181,0,0,1,0-2.362h21.255a1.181,1.181,0,0,1,0,2.362Z" transform="translate(6.574 8.417)" fill="#212121"/>
    <path id="Path_4429" data-name="Path 4429" d="M948.9,626.2a1.179,1.179,0,0,1-1.181-1.178V594.309a1.18,1.18,0,0,1,2.361,0v30.707A1.178,1.178,0,0,1,948.9,626.2Z" transform="translate(8.547 1.578)" fill="#212121"/>
    <path id="Path_4430" data-name="Path 4430" d="M951.647,626.2a1.179,1.179,0,0,1-1.181-1.177V594.309a1.181,1.181,0,0,1,2.362,0v30.707a1.18,1.18,0,0,1-1.178,1.181Z" transform="translate(9.335 1.578)" fill="#212121"/>
    <path id="Path_4431" data-name="Path 4431" d="M952.436,591.754a1.179,1.179,0,0,1-1.181-1.177v0a.591.591,0,0,0-1.181,0,1.18,1.18,0,1,1-2.361,0,2.952,2.952,0,0,1,5.9,0,1.179,1.179,0,0,1-1.178,1.181Z" transform="translate(8.547 0)" fill="#212121"/>
    <path id="Path_4432" data-name="Path 4432" d="M963.593,596.279a1.18,1.18,0,1,1,0-2.361.591.591,0,1,0,0-1.181,1.181,1.181,0,1,1,0-2.362,2.952,2.952,0,0,1,0,5.9Z" transform="translate(12.758 0.789)" fill="#212121"/>
    <path id="Path_4433" data-name="Path 4433" d="M937.369,596.279a2.952,2.952,0,1,1,0-5.9,1.181,1.181,0,1,1,0,2.362.591.591,0,1,0,0,1.181,1.18,1.18,0,1,1,0,2.361Z" transform="translate(4.737 0.789)" fill="#212121"/>
    <path id="Path_4434" data-name="Path 4434" d="M971.2,592.739H937.036a1.181,1.181,0,1,1,0-2.362H971.2a1.181,1.181,0,1,1,0,2.362Z" transform="translate(5.149 0.789)" fill="#212121"/>
    <path id="Path_4435" data-name="Path 4435" d="M971.2,595.49H937.036a1.18,1.18,0,1,1,0-2.361H971.2a1.18,1.18,0,1,1,0,2.361Z" transform="translate(5.149 1.578)" fill="#212121"/>
    <path id="Path_4436" data-name="Path 4436" d="M948.894,593.134a1.18,1.18,0,0,1-1.181-1.178v-1.777a1.18,1.18,0,0,1,2.361,0v1.774a1.179,1.179,0,0,1-1.177,1.181Z" transform="translate(8.547 0.394)" fill="#212121"/>
    <path id="Path_4437" data-name="Path 4437" d="M951.647,593.131a1.18,1.18,0,0,1-1.181-1.178v-1.774a1.181,1.181,0,0,1,2.362,0v1.772a1.18,1.18,0,0,1-1.178,1.181Z" transform="translate(9.335 0.394)" fill="#212121"/>
    <path id="Path_4438" data-name="Path 4438" d="M938.749,614.249a7.092,7.092,0,0,1-7.085-7.085,1.18,1.18,0,1,1,2.361,0,4.724,4.724,0,0,0,9.448,0,1.181,1.181,0,0,1,2.362,0A7.1,7.1,0,0,1,938.749,614.249Z" transform="translate(3.948 5.261)" fill="#212121"/>
    <path id="Path_4439" data-name="Path 4439" d="M944.654,608.345h-11.81a1.181,1.181,0,0,1,0-2.362h11.81a1.181,1.181,0,0,1,0,2.362Z" transform="translate(3.948 5.261)" fill="#212121"/>
    <path id="Path_4440" data-name="Path 4440" d="M932.844,612.026a1.183,1.183,0,0,1-1.18-1.186,1.158,1.158,0,0,1,.068-.391l5.906-16.538a1.18,1.18,0,0,1,2.222.794l-5.905,16.537a1.179,1.179,0,0,1-1.112.785Z" transform="translate(3.948 1.579)" fill="#212121"/>
    <path id="Path_4441" data-name="Path 4441" d="M943.338,612.027a1.176,1.176,0,0,1-1.11-.785l-5.9-16.537a1.18,1.18,0,0,1,2.222-.794l5.9,16.538a1.184,1.184,0,0,1-1.112,1.577Z" transform="translate(5.264 1.579)" fill="#212121"/>
    <path id="Path_4442" data-name="Path 4442" d="M964.476,615.185a7.11,7.11,0,0,1-7.1-7.1,1.18,1.18,0,1,1,2.361,0,4.742,4.742,0,0,0,9.484,0,1.181,1.181,0,0,1,2.362,0A7.112,7.112,0,0,1,964.476,615.185Z" transform="translate(11.314 5.524)" fill="#212121"/>
    <path id="Path_4443" data-name="Path 4443" d="M970.377,609.262h-11.81a1.18,1.18,0,1,1,0-2.361h11.81a1.18,1.18,0,1,1,0,2.361Z" transform="translate(11.318 5.524)" fill="#212121"/>
    <path id="Path_4444" data-name="Path 4444" d="M958.567,613.212a1.181,1.181,0,0,1-1.18-1.184,1.169,1.169,0,0,1,.06-.37l5.906-17.718a1.181,1.181,0,1,1,2.251.714l-.012.032-5.906,17.719a1.182,1.182,0,0,1-1.121.807Z" transform="translate(11.318 1.574)" fill="#212121"/>
    <path id="Path_4445" data-name="Path 4445" d="M969.063,613.212a1.176,1.176,0,0,1-1.119-.807l-5.9-17.719a1.181,1.181,0,0,1,2.229-.78l.01.033,5.9,17.718a1.181,1.181,0,0,1-.746,1.494h0a1.2,1.2,0,0,1-.374.06Z" transform="translate(12.632 1.574)" fill="#212121"/>
  </g>
</svg>
