<svg xmlns="http://www.w3.org/2000/svg" width="72.017" height="72.045" viewBox="0 0 72.017 72.045">
  <g id="Group_702" data-name="Group 702" transform="translate(-999.011 -571.012)">
    <g id="Outline" transform="translate(999.011 571.012)">
      <g id="Group_698" data-name="Group 698">
        <path id="Path_4446" data-name="Path 4446" d="M1009.814,623.8h-8.4v-9.6a1.2,1.2,0,0,0-2.4,0V625a1.2,1.2,0,0,0,1.2,1.2h1.417a3.6,3.6,0,1,0,6.77,0h1.417a1.2,1.2,0,0,0,0-2.4Zm-3.6,3.6a1.2,1.2,0,1,1-1.2-1.2A1.2,1.2,0,0,1,1006.213,627.4Z" transform="translate(-999.011 -558.983)" fill="#212121"/>
        <path id="Path_4450" data-name="Path 4450" d="M1055.539,608.221a1.2,1.2,0,1,0,0,2.4h6a1.2,1.2,0,0,0,1.2-1.2v-6a1.2,1.2,0,0,0-1.2-1.2h-16.8V578.214h8.4v3.6a1.2,1.2,0,1,0,2.4,0v-4.8a1.2,1.2,0,0,0-1.2-1.2h-9.6v-3.6a1.2,1.2,0,1,0-2.4,0v3.6h-9.6a1.2,1.2,0,0,0-1.2,1.2v3.6h-2.4a1.2,1.2,0,0,0-1.2,1.2v9.6a1.2,1.2,0,0,0,1.2,1.2h2.4v4.8a16.71,16.71,0,0,1-2.229,8.339v4.122a19.165,19.165,0,0,0,4.629-12.461v-4.8h2.4a1.2,1.2,0,0,0,1.2-1.2v-9.6a1.2,1.2,0,0,0-1.2-1.2h-2.4v-2.4h8.4v24.005h-6a1.2,1.2,0,0,0-1.2,1.2v14.4a1.2,1.2,0,0,0,1.2,1.2h6v13.2h-4.8a1.2,1.2,0,0,0-1.2,1.2v2.617a3.6,3.6,0,1,0,2.4,0v-1.417h9.6v1.417a3.6,3.6,0,1,0,2.4,0v-2.617a1.2,1.2,0,0,0-1.2-1.2h-4.8v-13.2h3.6v5.27a11.524,11.524,0,0,0,11.511,11.535h1.693a1.2,1.2,0,0,0,0-2.4h-1.669a9.146,9.146,0,0,1-9.134-9.134v-5.27a1.2,1.2,0,0,0,1.2-1.2v-3.6a2.4,2.4,0,0,1,2.4,2.4v8.4a4.8,4.8,0,0,0,4.8,4.8h2.4a1.2,1.2,0,0,0,0-2.4h-2.4a2.4,2.4,0,0,1-2.4-2.4v-8.4a4.8,4.8,0,0,0-4.8-4.8v-7.2h8.4v3.6Zm-20.4-18h-4.8v-2.4h4.8Zm0-7.2v2.4h-4.8v-2.4Zm2.4,57.613a1.2,1.2,0,1,1,1.2-1.2A1.2,1.2,0,0,1,1037.536,640.628Zm12-2.4a1.2,1.2,0,1,1-1.2,1.2A1.2,1.2,0,0,1,1049.538,638.228Zm-4.8-21.606h-7.2v-2.4h3.6a1.2,1.2,0,1,0,0-2.4h-3.6v-2.4h7.2Zm4.8,0h-2.4v-7.2h2.4Zm0-9.6h-12v-2.4h12Z" transform="translate(-990.724 -571.012)" fill="#212121"/>
        <path id="Path_4451" data-name="Path 4451" d="M1037.42,625.68h-1.2v-3.6a6,6,0,0,0-4.993-5.894,3.6,3.6,0,0,0-3.409-2.509h-.216a3.572,3.572,0,0,0,.216-1.2,3.492,3.492,0,0,0-.456-1.716,19.132,19.132,0,0,0,7.469-3.574v-3.17a16.749,16.749,0,0,1-11.814,4.861h-2.4v-3.6a6,6,0,0,0-2.4-4.8,6,6,0,1,0-9.6-4.8,6.287,6.287,0,0,0,.2,1.5,1.2,1.2,0,0,0,2.329-.6,3.293,3.293,0,0,1-.133-.9,3.6,3.6,0,1,1,3.6,3.6,1.2,1.2,0,1,0,0,2.4,3.6,3.6,0,0,1,3.6,3.6v4.8a1.2,1.2,0,0,0,1.2,1.2h4.8a1.2,1.2,0,1,1,0,2.4h-6a2.4,2.4,0,0,1-2.4-2.4v-6a1.2,1.2,0,0,0-2.4,0v6a4.7,4.7,0,0,0,.672,2.4h-3.072v-10.8a3.6,3.6,0,0,0-3.6-3.6h-4.8a3.6,3.6,0,0,0-3.6,3.6v13.2a1.2,1.2,0,1,0,2.4,0v-13.2a1.2,1.2,0,0,1,1.2-1.2h4.8a1.2,1.2,0,0,1,1.2,1.2V626.88a1.2,1.2,0,1,0,2.4,0v-10.8h16.8a1.2,1.2,0,0,1,1.2,1.2v13.2h-14.4a1.2,1.2,0,1,0,0,2.4h8.617a3.6,3.6,0,1,0,6.77,0h.216a1.2,1.2,0,0,0,1.2-1.2V618.694a3.6,3.6,0,0,1,2.4,3.385v4.8a1.2,1.2,0,0,0,1.2,1.2h2.4a1.2,1.2,0,0,1,1.2,1.2v1.2h-3.6a1.2,1.2,0,0,0,0,2.4h4.8a1.2,1.2,0,0,0,1.2-1.2v-2.4A3.6,3.6,0,0,0,1037.42,625.68Zm-10.8,9.6a1.2,1.2,0,1,1,1.2-1.2A1.2,1.2,0,0,1,1026.617,635.282Z" transform="translate(-999.011 -565.666)" fill="#212121"/>
      </g>
    </g>
    <g id="Group_700" data-name="Group 700" transform="translate(1031.286 603.67)">
      <line id="Line_20" data-name="Line 20" x2="1.245" y2="1.245" transform="translate(1.764 1.333)" stroke="#212121" stroke-linecap="round" stroke-miterlimit="10" stroke-width="1"/>
      <line id="Line_21" data-name="Line 21" x2="1.759" y2="0.067" transform="translate(0 4.714)" stroke="#212121" stroke-linecap="round" stroke-miterlimit="10" stroke-width="1"/>
      <line id="Line_22" data-name="Line 22" x2="0.085" y2="1.758" transform="translate(4.878)" stroke="#212121" stroke-linecap="round" stroke-miterlimit="10" stroke-width="1"/>
    </g>
    <g id="Group_701" data-name="Group 701" transform="translate(1035.932 611.757)">
      <line id="Line_23" data-name="Line 23" x1="1.245" y1="1.245" transform="translate(2.011 1.739)" stroke="#212121" stroke-linecap="round" stroke-miterlimit="10" stroke-width="1"/>
      <line id="Line_24" data-name="Line 24" x1="1.759" y1="0.067" transform="translate(2.873)" stroke="#212121" stroke-linecap="round" stroke-miterlimit="10" stroke-width="1"/>
      <line id="Line_25" data-name="Line 25" x1="0.085" y1="1.758" transform="translate(0 2.164)" stroke="#212121" stroke-linecap="round" stroke-miterlimit="10" stroke-width="1"/>
    </g>
  </g>
</svg>
