<svg xmlns="http://www.w3.org/2000/svg" width="16.625" height="16.625" viewBox="0 0 16.625 16.625">
  <path id="Path_4332" data-name="Path 4332" d="M1756.133,17.383a1.994,1.994,0,0,1-1.41-3.414,1.925,1.925,0,0,1,1.41-.594,2.023,2.023,0,0,1,1.726.983,1.945,1.945,0,0,1,0,2,2.128,2.128,0,0,1-.743.742A1.876,1.876,0,0,1,1756.133,17.383ZM1757.84,30h-3.451V18.9h3.451Zm12.914,0H1767.3V24.582c0-.42-.013-.761-.037-1.02a4.806,4.806,0,0,0-.186-.891,1.331,1.331,0,0,0-.538-.761,1.811,1.811,0,0,0-1.02-.26,1.71,1.71,0,0,0-1.652.78,4.335,4.335,0,0,0-.427,2.078V30h-3.451V18.9h3.34v1.522h.037a3.249,3.249,0,0,1,1.225-1.28,3.745,3.745,0,0,1,2.041-.539,4.957,4.957,0,0,1,2.1.39,2.728,2.728,0,0,1,1.261,1.15,5.393,5.393,0,0,1,.594,1.652,11.671,11.671,0,0,1,.167,2.115Z" transform="translate(-1754.129 -13.375)" fill="#fff"/>
</svg>
