<svg xmlns="http://www.w3.org/2000/svg" width="16.625" height="16.625" viewBox="0 0 16.625 16.625">
  <path id="Path_4333" data-name="Path 4333" d="M1817.066,19.461q.036,1,.037,3.414t-.037,3.414a5.122,5.122,0,0,1-1.354,3.507,4.991,4.991,0,0,1-3.507,1.317q-1,.075-3.414.075t-3.414-.075a5.09,5.09,0,0,1-3.489-1.336,3.593,3.593,0,0,1-.779-1.039,5.254,5.254,0,0,1-.427-1.15,5.735,5.735,0,0,1-.13-1.3q-.073-1-.074-3.414t.074-3.451a5.046,5.046,0,0,1,1.336-3.451,5,5,0,0,1,3.489-1.373q1-.038,3.414-.037t3.414.037a5.119,5.119,0,0,1,3.507,1.354A5.122,5.122,0,0,1,1817.066,19.461Zm-3.377,9.908a2.81,2.81,0,0,0,1.6-1.6,3.985,3.985,0,0,0,.185-.76,11.1,11.1,0,0,0,.112-1.114c.024-.432.037-.785.037-1.057V20.908c0-.272-.013-.624-.037-1.057a11.164,11.164,0,0,0-.112-1.114,4,4,0,0,0-.185-.76,2.679,2.679,0,0,0-1.6-1.6,4.087,4.087,0,0,0-.761-.186q-.463-.073-1.113-.111c-.433-.024-.779-.037-1.039-.037h-3.952c-.273,0-.625.013-1.058.037s-.8.062-1.113.111a4.07,4.07,0,0,0-.761.186,2.675,2.675,0,0,0-1.595,1.6,3.933,3.933,0,0,0-.186.76,10.947,10.947,0,0,0-.111,1.114q-.038.65-.037,1.039v3.562c0,.236.005.538.018.909s.031.687.056.947.061.525.111.8a6.73,6.73,0,0,0,.149.668,2.809,2.809,0,0,0,1.595,1.6,4.07,4.07,0,0,0,.761.186,11.153,11.153,0,0,0,1.113.111c.433.025.78.037,1.039.037h3.952q.408,0,1.058-.037a11.146,11.146,0,0,0,1.113-.111,4.087,4.087,0,0,0,.761-.186Zm-7.923-9.518a4.268,4.268,0,0,1,7.292,3.024,4.268,4.268,0,1,1-7.292-3.024Zm1.058,4.991a2.776,2.776,0,1,0-.817-1.967A2.682,2.682,0,0,0,1806.824,24.842Zm7.106-7.107a.934.934,0,0,1,.279.687,1,1,0,0,1-.279.7.9.9,0,0,1-.686.3,1.014,1.014,0,0,1-1-1,.9.9,0,0,1,.3-.687,1,1,0,0,1,.705-.278A.933.933,0,0,1,1813.93,17.735Z" transform="translate(-1800.478 -14.563)" fill="#fff"/>
</svg>
