<svg xmlns="http://www.w3.org/2000/svg" width="96.843" height="50" viewBox="0 0 96.843 50">
  <g id="Group_675" data-name="Group 675" transform="translate(-359.717 -230.072)">
    <path id="Path_4365" data-name="Path 4365" d="M1219.289,245.174h-7.55a7.55,7.55,0,1,1,0,15.1H1189.37v-15.1h7.55a7.55,7.55,0,0,1,0-15.1h22.369Z" transform="translate(-762.73 -0.001)" fill="#cf9455"/>
    <path id="Path_4366" data-name="Path 4366" d="M748.5,245.172h0a15.1,15.1,0,0,1,15.1-15.1h14.818v30.2H763.6A15.1,15.1,0,0,1,748.5,245.172Z" transform="translate(-357.418)" fill="#cf9455"/>
    <path id="Path_4367" data-name="Path 4367" d="M390.018,245.172h0a15.1,15.1,0,0,1-15.1,15.1H360.1v-30.2h14.818A15.1,15.1,0,0,1,390.018,245.172Z" transform="translate(-0.352)" fill="#cf9455"/>
    <rect id="Rectangle_975" data-name="Rectangle 975" width="2.823" height="2.849" transform="translate(422.407 257.423)" fill="#cf9455"/>
    <rect id="Rectangle_976" data-name="Rectangle 976" width="96.811" height="2.214" transform="translate(359.748 263.166)" fill="#cf9455"/>
    <g id="Group_672" data-name="Group 672" transform="translate(359.717 268.27)">
      <g id="Group_671" data-name="Group 671" transform="translate(0 0)">
        <path id="Path_4368" data-name="Path 4368" d="M359.772,703.621l2.937.018a5.169,5.169,0,0,1,1.855.327,4.013,4.013,0,0,1,1.4.9,3.879,3.879,0,0,1,.883,1.383,5.193,5.193,0,0,1-.022,3.532,3.816,3.816,0,0,1-.9,1.366,4.052,4.052,0,0,1-1.413.877,5.168,5.168,0,0,1-1.859.3l-2.937-.018Zm2.819,7.154a3.657,3.657,0,0,0,1.263-.192,2.462,2.462,0,0,0,.914-.559,2.311,2.311,0,0,0,.552-.876,3.7,3.7,0,0,0,.014-2.294,2.317,2.317,0,0,0-.541-.884,2.466,2.466,0,0,0-.907-.57,3.657,3.657,0,0,0-1.261-.208l-1.226-.008-.035,5.583Z" transform="translate(-359.717 -703.621)" fill="#cf9455"/>
        <path id="Path_4369" data-name="Path 4369" d="M465.38,739.6a3.33,3.33,0,0,1-.777,1.42,3.088,3.088,0,0,1-1.536.865,3.278,3.278,0,0,1-1.275.089,3,3,0,0,1-2.029-1.189,3.305,3.305,0,0,1-.55-1.167,3.252,3.252,0,0,1-.085-1.238,3.078,3.078,0,0,1,1.14-2.048,2.987,2.987,0,0,1,1.139-.561,3.237,3.237,0,0,1,1.293-.093,2.6,2.6,0,0,1,1.07.4,2.83,2.83,0,0,1,.8.813,3.822,3.822,0,0,1,.5,1.149l.037.141a.8.8,0,0,0,.022.132.677.677,0,0,0,.022.132l-4.333,1.132a1.667,1.667,0,0,0,.352.554,1.513,1.513,0,0,0,.474.328,1.459,1.459,0,0,0,.54.122,1.9,1.9,0,0,0,.548-.062,1.547,1.547,0,0,0,.812-.469,1.819,1.819,0,0,0,.388-.747Zm-1.98-1.866a1.031,1.031,0,0,0-.189-.315,1.243,1.243,0,0,0-.35-.285,1.4,1.4,0,0,0-.493-.16,1.617,1.617,0,0,0-.632.052,1.456,1.456,0,0,0-.8.509,1.537,1.537,0,0,0-.323.925Z" transform="translate(-451.086 -733.066)" fill="#cf9455"/>
        <path id="Path_4370" data-name="Path 4370" d="M538.018,738.74l1.808.011,1.457,3.8h.085l1.516-3.777,1.8.011-2.6,5.931-1.565-.01Z" transform="translate(-523.635 -735.907)" fill="#cf9455"/>
        <path id="Path_4371" data-name="Path 4371" d="M627.7,713.61h-.1a1.8,1.8,0,0,1-.683.639,2.248,2.248,0,0,1-1.142.26,2.577,2.577,0,0,1-1.085-.243,2.906,2.906,0,0,1-.906-.661,3.11,3.11,0,0,1-.619-1.005,3.636,3.636,0,0,1,.016-2.549,3.109,3.109,0,0,1,.631-1,2.9,2.9,0,0,1,.914-.65,2.572,2.572,0,0,1,1.088-.23,2.248,2.248,0,0,1,1.139.274,1.809,1.809,0,0,1,.675.648h.1l-.092-.85.017-2.609,1.59.01-.055,8.69-1.493-.009Zm-1.586-.568a1.584,1.584,0,0,0,.6-.112,1.5,1.5,0,0,0,.506-.331,1.661,1.661,0,0,0,.355-.532,1.987,1.987,0,0,0,.009-1.432,1.664,1.664,0,0,0-.349-.536,1.5,1.5,0,0,0-.5-.337,1.589,1.589,0,0,0-.6-.119,1.519,1.519,0,0,0-.6.118,1.578,1.578,0,0,0-.506.337,1.66,1.66,0,0,0-.355.532,1.924,1.924,0,0,0-.009,1.408,1.66,1.66,0,0,0,.348.536,1.581,1.581,0,0,0,.5.343A1.514,1.514,0,0,0,626.111,713.042Z" transform="translate(-601.709 -705.473)" fill="#cf9455"/>
        <path id="Path_4372" data-name="Path 4372" d="M718.595,741.191a3.329,3.329,0,0,1-.777,1.42,3.086,3.086,0,0,1-1.536.865,3.274,3.274,0,0,1-1.275.089,3,3,0,0,1-2.029-1.189,3.309,3.309,0,0,1-.549-1.167,3.25,3.25,0,0,1-.085-1.238,3.076,3.076,0,0,1,1.14-2.048,2.985,2.985,0,0,1,1.139-.561,3.241,3.241,0,0,1,1.293-.093,2.6,2.6,0,0,1,1.07.4,2.827,2.827,0,0,1,.8.813,3.821,3.821,0,0,1,.5,1.149l.037.141a.806.806,0,0,0,.022.132.678.678,0,0,0,.022.132l-4.333,1.132a1.671,1.671,0,0,0,.352.554,1.511,1.511,0,0,0,.474.328,1.458,1.458,0,0,0,.54.122,1.917,1.917,0,0,0,.548-.062,1.548,1.548,0,0,0,.812-.469,1.821,1.821,0,0,0,.388-.747Zm-1.98-1.866a1.03,1.03,0,0,0-.189-.315,1.248,1.248,0,0,0-.35-.285,1.4,1.4,0,0,0-.493-.16,1.61,1.61,0,0,0-.632.052,1.455,1.455,0,0,0-.8.509,1.537,1.537,0,0,0-.323.925Z" transform="translate(-683.876 -734.528)" fill="#cf9455"/>
        <path id="Path_4373" data-name="Path 4373" d="M798.885,744.5a3.4,3.4,0,0,1-1.037-.152,2.859,2.859,0,0,1-.786-.387,2.5,2.5,0,0,1-.561-.55,2.611,2.611,0,0,1-.348-.627l1.424-.6a1.533,1.533,0,0,0,.548.689,1.383,1.383,0,0,0,.769.229,1.307,1.307,0,0,0,.693-.153.448.448,0,0,0,.257-.375.465.465,0,0,0-.21-.4,2.21,2.21,0,0,0-.733-.278l-.836-.187a2.914,2.914,0,0,1-.575-.2,2.242,2.242,0,0,1-.538-.343,1.722,1.722,0,0,1-.4-.5,1.4,1.4,0,0,1-.154-.681,1.577,1.577,0,0,1,.193-.776,1.754,1.754,0,0,1,.519-.573,2.47,2.47,0,0,1,.773-.359,3.436,3.436,0,0,1,.953-.122,3.349,3.349,0,0,1,1.515.343,2.058,2.058,0,0,1,.976,1.068l-1.375.55a1.051,1.051,0,0,0-.494-.513,1.5,1.5,0,0,0-.654-.162,1.221,1.221,0,0,0-.6.136.41.41,0,0,0-.257.356.367.367,0,0,0,.21.329,2.455,2.455,0,0,0,.575.222l.909.224a2.631,2.631,0,0,1,1.349.706,1.616,1.616,0,0,1,.436,1.137,1.59,1.59,0,0,1-.187.739,1.989,1.989,0,0,1-.52.622,2.526,2.526,0,0,1-.8.426A3.231,3.231,0,0,1,798.885,744.5Z" transform="translate(-760.948 -735.375)" fill="#cf9455"/>
        <path id="Path_4374" data-name="Path 4374" d="M872.729,707.747a1.026,1.026,0,0,1-.72-.3,1.022,1.022,0,0,1-.216-.323,1.056,1.056,0,0,1,.005-.8,1.027,1.027,0,0,1,.22-.32,1.024,1.024,0,0,1,.724-.293,1,1,0,0,1,.726.3,1.011,1.011,0,0,1-.009,1.444A1,1,0,0,1,872.729,707.747Zm-.831,6.743.037-5.947,1.59.01-.037,5.947Z" transform="translate(-830.416 -705.539)" fill="#cf9455"/>
        <path id="Path_4375" data-name="Path 4375" d="M910.053,747.826a3.544,3.544,0,0,1-1.122-.171,3.187,3.187,0,0,1-.853-.43,2.853,2.853,0,0,1-.6-.58,2.252,2.252,0,0,1-.348-.633l1.521-.6a1.444,1.444,0,0,0,.554.738,1.634,1.634,0,0,0,2.053-.214,1.943,1.943,0,0,0,.445-1.341l0-.413h-.1a1.945,1.945,0,0,1-.738.608,2.4,2.4,0,0,1-1.075.218,2.6,2.6,0,0,1-1.036-.223,2.717,2.717,0,0,1-.888-.625,3.267,3.267,0,0,1,.028-4.471,2.719,2.719,0,0,1,.9-.613,2.605,2.605,0,0,1,1.039-.21,2.406,2.406,0,0,1,1.073.231,1.951,1.951,0,0,1,.73.617h.1l0-.643,1.517.01-.035,5.522a3.749,3.749,0,0,1-.239,1.352,2.925,2.925,0,0,1-.65,1.016,2.8,2.8,0,0,1-.993.637A3.5,3.5,0,0,1,910.053,747.826Zm.087-4.247a1.627,1.627,0,0,0,.577-.1,1.472,1.472,0,0,0,.506-.313,1.576,1.576,0,0,0,.355-.51,1.721,1.721,0,0,0,.138-.7,1.762,1.762,0,0,0-.129-.7,1.565,1.565,0,0,0-.349-.521,1.475,1.475,0,0,0-.5-.319,1.626,1.626,0,0,0-.576-.111,1.574,1.574,0,0,0-.571.1,1.437,1.437,0,0,0-.5.318,1.642,1.642,0,0,0-.355.516,1.889,1.889,0,0,0-.009,1.394,1.572,1.572,0,0,0,.349.515,1.489,1.489,0,0,0,.5.319A1.586,1.586,0,0,0,910.14,743.579Z" transform="translate(-862.86 -736.024)" fill="#cf9455"/>
        <path id="Path_4376" data-name="Path 4376" d="M1002.327,740.465h.1a2.013,2.013,0,0,1,.757-.705,2.2,2.2,0,0,1,1.082-.254,2.477,2.477,0,0,1,.982.188,1.8,1.8,0,0,1,.695.52,2.28,2.28,0,0,1,.407.8,3.618,3.618,0,0,1,.133,1.039l-.023,3.6-1.59-.01.021-3.41a1.368,1.368,0,0,0-.279-.955,1.074,1.074,0,0,0-.829-.315,1.159,1.159,0,0,0-.578.136,1.344,1.344,0,0,0-.427.373,1.705,1.705,0,0,0-.271.557,2.512,2.512,0,0,0-.1.685l-.018,2.913-1.59-.01.037-5.947,1.493.009Z" transform="translate(-949.089 -736.612)" fill="#cf9455"/>
        <path id="Path_4377" data-name="Path 4377" d="M1087.084,792.89a1.036,1.036,0,0,1-.745-.3.965.965,0,0,1-.305-.723.947.947,0,0,1,.314-.713,1.047,1.047,0,0,1,.748-.288,1.027,1.027,0,0,1,.739.3.957.957,0,0,1,.3.717.975.975,0,0,1-.308.719A1.016,1.016,0,0,1,1087.084,792.89Z" transform="translate(-1027.447 -783.826)" fill="#cf9455"/>
        <path id="Path_4378" data-name="Path 4378" d="M1126.219,715.328a3.6,3.6,0,0,1-1.067-.165,3.08,3.08,0,0,1-.932-.479,3.267,3.267,0,0,1-.735-.775,3.73,3.73,0,0,1-.491-1.065l1.545-.6a2.353,2.353,0,0,0,.588,1.09,1.5,1.5,0,0,0,1.114.438,1.793,1.793,0,0,0,.492-.064,1.448,1.448,0,0,0,.426-.192.941.941,0,0,0,.3-.32.9.9,0,0,0,.112-.448,1.082,1.082,0,0,0-.082-.437,1.023,1.023,0,0,0-.283-.366,2.539,2.539,0,0,0-.52-.331,7.949,7.949,0,0,0-.793-.333l-.533-.2a4.068,4.068,0,0,1-.708-.332,3.11,3.11,0,0,1-.646-.5,2.451,2.451,0,0,1-.475-.689,2.045,2.045,0,0,1-.183-.893,2.288,2.288,0,0,1,.206-.951,2.327,2.327,0,0,1,.576-.773,2.675,2.675,0,0,1,.889-.516,3.668,3.668,0,0,1,2.282,0,2.793,2.793,0,0,1,.81.454,2.505,2.505,0,0,1,.537.6,2.926,2.926,0,0,1,.3.621l-1.448.6a1.539,1.539,0,0,0-.439-.658,1.262,1.262,0,0,0-.878-.3,1.5,1.5,0,0,0-.888.243.762.762,0,0,0-.356.647.822.822,0,0,0,.336.664,3.7,3.7,0,0,0,1.077.535l.545.186a6.265,6.265,0,0,1,.95.425,2.989,2.989,0,0,1,.737.569,2.3,2.3,0,0,1,.469.749,2.638,2.638,0,0,1,.158.966,2.372,2.372,0,0,1-.281,1.169,2.5,2.5,0,0,1-.7.8,3.027,3.027,0,0,1-.962.467A3.673,3.673,0,0,1,1126.219,715.328Z" transform="translate(-1061.425 -706.037)" fill="#cf9455"/>
        <path id="Path_4379" data-name="Path 4379" d="M1206.97,723.628l-1.044-.007.008-1.359,1.044.007.011-1.82,1.59.01-.012,1.821,1.456.009-.008,1.359-1.457-.009-.015,2.376a1.733,1.733,0,0,0,.04.394.64.64,0,0,0,.162.307.6.6,0,0,0,.484.2.884.884,0,0,0,.559-.154l.44,1.4a2.635,2.635,0,0,1-.6.2,3.5,3.5,0,0,1-.711.062,2.172,2.172,0,0,1-.806-.148,1.715,1.715,0,0,1-.6-.394,2.116,2.116,0,0,1-.56-1.589Z" transform="translate(-1137.667 -719.091)" fill="#cf9455"/>
        <path id="Path_4380" data-name="Path 4380" d="M1274.446,748.536h-.1a2.014,2.014,0,0,1-.757.705,2.2,2.2,0,0,1-1.082.254,2.021,2.021,0,0,1-1.677-.7,2.871,2.871,0,0,1-.541-1.848l.023-3.6,1.59.01-.021,3.41a1.368,1.368,0,0,0,.279.955,1.075,1.075,0,0,0,.829.315,1.157,1.157,0,0,0,.577-.136,1.343,1.343,0,0,0,.427-.374,1.7,1.7,0,0,0,.271-.557,2.511,2.511,0,0,0,.1-.685l.018-2.913,1.59.01-.037,5.947-1.493-.009Z" transform="translate(-1196.842 -740.136)" fill="#cf9455"/>
        <path id="Path_4381" data-name="Path 4381" d="M1357.1,718.191h-.1a1.8,1.8,0,0,1-.684.639,2.247,2.247,0,0,1-1.142.26,2.575,2.575,0,0,1-1.085-.243,2.907,2.907,0,0,1-.906-.661,3.116,3.116,0,0,1-.618-1.005,3.634,3.634,0,0,1,.016-2.549,3.107,3.107,0,0,1,.631-1,2.9,2.9,0,0,1,.914-.65,2.575,2.575,0,0,1,1.088-.23,2.247,2.247,0,0,1,1.139.274,1.808,1.808,0,0,1,.676.648h.1l-.092-.85.016-2.609,1.59.01-.054,8.69-1.493-.009Zm-1.586-.568a1.582,1.582,0,0,0,.6-.112,1.5,1.5,0,0,0,.506-.331,1.655,1.655,0,0,0,.355-.532,1.985,1.985,0,0,0,.009-1.432,1.665,1.665,0,0,0-.349-.536,1.5,1.5,0,0,0-.5-.337,1.588,1.588,0,0,0-.6-.119,1.517,1.517,0,0,0-.6.117,1.584,1.584,0,0,0-.506.336,1.66,1.66,0,0,0-.355.532,1.923,1.923,0,0,0-.009,1.408,1.656,1.656,0,0,0,.349.536,1.581,1.581,0,0,0,.5.343A1.522,1.522,0,0,0,1355.509,717.623Z" transform="translate(-1272.271 -709.685)" fill="#cf9455"/>
        <path id="Path_4382" data-name="Path 4382" d="M1446.557,711.35a1.027,1.027,0,0,1-.72-.3,1.019,1.019,0,0,1-.216-.323,1.056,1.056,0,0,1,0-.8,1.029,1.029,0,0,1,.22-.32,1.026,1.026,0,0,1,.724-.293,1,1,0,0,1,.726.3,1.011,1.011,0,0,1-.009,1.444A1,1,0,0,1,1446.557,711.35Zm-.831,6.743.037-5.947,1.59.01-.037,5.947Z" transform="translate(-1357.956 -708.852)" fill="#cf9455"/>
        <path id="Path_4383" data-name="Path 4383" d="M1484,742.5a3.309,3.309,0,0,1,1.267.245,2.941,2.941,0,0,1,1.64,1.667,3.551,3.551,0,0,1-.016,2.549,2.943,2.943,0,0,1-1.661,1.646,3.517,3.517,0,0,1-2.536-.016,2.94,2.94,0,0,1-1.64-1.667,3.548,3.548,0,0,1,.016-2.549,2.942,2.942,0,0,1,1.661-1.646A3.311,3.311,0,0,1,1484,742.5Zm-.031,4.867a1.552,1.552,0,0,0,.589-.112,1.5,1.5,0,0,0,.506-.331,1.576,1.576,0,0,0,.349-.532,2.074,2.074,0,0,0,.009-1.432,1.581,1.581,0,0,0-.343-.536,1.5,1.5,0,0,0-.5-.337,1.56,1.56,0,0,0-.588-.119,1.541,1.541,0,0,0-.6.112,1.515,1.515,0,0,0-.5.331,1.577,1.577,0,0,0-.349.532,2.077,2.077,0,0,0-.009,1.432,1.574,1.574,0,0,0,.343.536,1.512,1.512,0,0,0,.5.337A1.543,1.543,0,0,0,1483.972,747.365Z" transform="translate(-1390.393 -739.362)" fill="#cf9455"/>
      </g>
    </g>
  </g>
</svg>
