<svg xmlns="http://www.w3.org/2000/svg" width="96.234" height="49.686" viewBox="0 0 96.234 49.686">
  <g id="Group_673" data-name="Group 673" transform="translate(-359.717 -230.072)">
    <path id="Path_4365" data-name="Path 4365" d="M1219.1,245.079h-7.5a7.5,7.5,0,1,1,0,15H1189.37v-15h7.5a7.5,7.5,0,0,1,0-15.006H1219.1Z" transform="translate(-763.15 -0.001)" fill="#fff"/>
    <path id="Path_4366" data-name="Path 4366" d="M748.5,245.077h0A15.005,15.005,0,0,1,763.5,230.072h14.725v30.011H763.5A15.005,15.005,0,0,1,748.5,245.077Z" transform="translate(-357.616 0)" fill="#fff"/>
    <path id="Path_4367" data-name="Path 4367" d="M389.83,245.077h0a15.005,15.005,0,0,1-15.005,15.005H360.1V230.072h14.725A15.005,15.005,0,0,1,389.83,245.077Z" transform="translate(-0.352 0)" fill="#fff"/>
    <rect id="Rectangle_975" data-name="Rectangle 975" width="2.805" height="2.831" transform="translate(422.013 257.252)" fill="#fff"/>
    <rect id="Rectangle_976" data-name="Rectangle 976" width="96.203" height="2.2" transform="translate(359.748 262.958)" fill="#fff"/>
    <g id="Group_672" data-name="Group 672" transform="translate(359.717 268.03)">
      <g id="Group_671" data-name="Group 671" transform="translate(0 0)">
        <path id="Path_4368" data-name="Path 4368" d="M359.771,703.621l2.919.018a5.135,5.135,0,0,1,1.843.325,3.989,3.989,0,0,1,1.393.9,3.854,3.854,0,0,1,.878,1.374,5.16,5.16,0,0,1-.022,3.51,3.792,3.792,0,0,1-.9,1.357,4.025,4.025,0,0,1-1.4.872,5.135,5.135,0,0,1-1.847.3l-2.919-.018Zm2.8,7.109a3.633,3.633,0,0,0,1.255-.191,2.446,2.446,0,0,0,.908-.555,2.3,2.3,0,0,0,.548-.871,3.681,3.681,0,0,0,.014-2.279,2.3,2.3,0,0,0-.537-.878,2.451,2.451,0,0,0-.9-.566,3.633,3.633,0,0,0-1.253-.207l-1.218-.008-.035,5.548Z" transform="translate(-359.717 -703.621)" fill="#fff"/>
        <path id="Path_4369" data-name="Path 4369" d="M465.34,739.576a3.309,3.309,0,0,1-.772,1.411,3.068,3.068,0,0,1-1.526.86,3.256,3.256,0,0,1-1.267.088,2.977,2.977,0,0,1-2.016-1.181,3.285,3.285,0,0,1-.546-1.16,3.231,3.231,0,0,1-.085-1.231,3.058,3.058,0,0,1,1.132-2.035,2.968,2.968,0,0,1,1.132-.557,3.216,3.216,0,0,1,1.285-.092,2.583,2.583,0,0,1,1.063.4,2.812,2.812,0,0,1,.8.808,3.8,3.8,0,0,1,.5,1.141l.037.14a.8.8,0,0,0,.022.131.672.672,0,0,0,.022.131l-4.306,1.125a1.658,1.658,0,0,0,.35.551,1.5,1.5,0,0,0,.471.326,1.45,1.45,0,0,0,.537.121,1.892,1.892,0,0,0,.545-.061,1.538,1.538,0,0,0,.807-.466,1.808,1.808,0,0,0,.386-.743Zm-1.968-1.854a1.024,1.024,0,0,0-.187-.313,1.236,1.236,0,0,0-.348-.283,1.392,1.392,0,0,0-.49-.159,1.606,1.606,0,0,0-.628.052,1.447,1.447,0,0,0-.79.506,1.527,1.527,0,0,0-.321.919Z" transform="translate(-451.136 -733.082)" fill="#fff"/>
        <path id="Path_4370" data-name="Path 4370" d="M538.018,738.74l1.8.011,1.448,3.772h.084l1.507-3.754,1.785.011-2.582,5.893-1.556-.01Z" transform="translate(-523.726 -735.925)" fill="#fff"/>
        <path id="Path_4371" data-name="Path 4371" d="M627.667,713.56h-.1a1.793,1.793,0,0,1-.679.635,2.233,2.233,0,0,1-1.135.258,2.56,2.56,0,0,1-1.078-.242,2.887,2.887,0,0,1-.9-.657,3.09,3.09,0,0,1-.615-1,3.613,3.613,0,0,1,.016-2.533,3.09,3.09,0,0,1,.627-.991,2.884,2.884,0,0,1,.909-.646,2.556,2.556,0,0,1,1.081-.228,2.234,2.234,0,0,1,1.132.272,1.8,1.8,0,0,1,.671.643h.1l-.091-.845.016-2.593,1.58.01-.054,8.635-1.483-.009ZM626.091,713a1.574,1.574,0,0,0,.6-.111,1.489,1.489,0,0,0,.5-.329,1.65,1.65,0,0,0,.353-.528,1.974,1.974,0,0,0,.009-1.423,1.653,1.653,0,0,0-.346-.533,1.5,1.5,0,0,0-.5-.335,1.578,1.578,0,0,0-.6-.118,1.51,1.51,0,0,0-.6.117,1.569,1.569,0,0,0-.5.335,1.649,1.649,0,0,0-.353.528,1.911,1.911,0,0,0-.009,1.4,1.65,1.65,0,0,0,.346.533,1.571,1.571,0,0,0,.5.341A1.5,1.5,0,0,0,626.091,713Z" transform="translate(-601.843 -705.474)" fill="#fff"/>
        <path id="Path_4372" data-name="Path 4372" d="M718.555,741.166a3.309,3.309,0,0,1-.772,1.411,3.067,3.067,0,0,1-1.526.86,3.253,3.253,0,0,1-1.267.088,2.978,2.978,0,0,1-2.016-1.181,3.288,3.288,0,0,1-.546-1.16,3.229,3.229,0,0,1-.084-1.231,3.056,3.056,0,0,1,1.132-2.035,2.965,2.965,0,0,1,1.132-.558,3.22,3.22,0,0,1,1.285-.093,2.587,2.587,0,0,1,1.063.4,2.81,2.81,0,0,1,.8.808,3.8,3.8,0,0,1,.5,1.141l.037.14a.8.8,0,0,0,.022.131.674.674,0,0,0,.022.131l-4.306,1.125a1.661,1.661,0,0,0,.35.551,1.5,1.5,0,0,0,.471.326,1.449,1.449,0,0,0,.537.122,1.9,1.9,0,0,0,.545-.061,1.539,1.539,0,0,0,.807-.466,1.81,1.81,0,0,0,.386-.743Zm-1.968-1.854A1.024,1.024,0,0,0,716.4,739a1.238,1.238,0,0,0-.348-.283,1.391,1.391,0,0,0-.49-.159,1.6,1.6,0,0,0-.628.052,1.446,1.446,0,0,0-.79.506,1.527,1.527,0,0,0-.321.919Z" transform="translate(-684.054 -734.545)" fill="#fff"/>
        <path id="Path_4373" data-name="Path 4373" d="M798.868,744.457a3.375,3.375,0,0,1-1.03-.151,2.842,2.842,0,0,1-.782-.385,2.479,2.479,0,0,1-.557-.546,2.6,2.6,0,0,1-.346-.623l1.415-.594a1.523,1.523,0,0,0,.545.685,1.374,1.374,0,0,0,.764.228,1.3,1.3,0,0,0,.689-.152.445.445,0,0,0,.256-.372.462.462,0,0,0-.208-.393,2.2,2.2,0,0,0-.728-.276l-.831-.186a2.9,2.9,0,0,1-.572-.2,2.23,2.23,0,0,1-.534-.341,1.709,1.709,0,0,1-.395-.5,1.394,1.394,0,0,1-.153-.676,1.566,1.566,0,0,1,.192-.771,1.743,1.743,0,0,1,.516-.57,2.456,2.456,0,0,1,.768-.357,3.415,3.415,0,0,1,.948-.121,3.328,3.328,0,0,1,1.505.341,2.045,2.045,0,0,1,.97,1.062l-1.366.546a1.045,1.045,0,0,0-.491-.51,1.494,1.494,0,0,0-.65-.161,1.213,1.213,0,0,0-.592.135.407.407,0,0,0-.256.354.365.365,0,0,0,.209.327,2.442,2.442,0,0,0,.572.221l.9.223a2.615,2.615,0,0,1,1.34.7,1.606,1.606,0,0,1,.433,1.13,1.58,1.58,0,0,1-.185.735,1.975,1.975,0,0,1-.517.618,2.509,2.509,0,0,1-.8.423A3.211,3.211,0,0,1,798.868,744.457Z" transform="translate(-761.169 -735.392)" fill="#fff"/>
        <path id="Path_4374" data-name="Path 4374" d="M872.722,707.734a1.02,1.02,0,0,1-.716-.3,1.015,1.015,0,0,1-.215-.321,1.05,1.05,0,0,1,0-.8,1.021,1.021,0,0,1,.219-.318,1.018,1.018,0,0,1,.719-.291,1,1,0,0,1,.722.3,1,1,0,0,1-.009,1.435A1,1,0,0,1,872.722,707.734Zm-.826,6.7.037-5.909,1.58.01-.037,5.91Z" transform="translate(-830.675 -705.541)" fill="#fff"/>
        <path id="Path_4375" data-name="Path 4375" d="M910.034,747.77a3.523,3.523,0,0,1-1.115-.17,3.167,3.167,0,0,1-.847-.428,2.833,2.833,0,0,1-.6-.577,2.236,2.236,0,0,1-.346-.629l1.511-.594a1.434,1.434,0,0,0,.55.733,1.624,1.624,0,0,0,2.04-.213,1.931,1.931,0,0,0,.443-1.333l0-.41h-.1a1.933,1.933,0,0,1-.733.6,2.383,2.383,0,0,1-1.069.216,2.585,2.585,0,0,1-1.03-.221,2.7,2.7,0,0,1-.883-.621,3.246,3.246,0,0,1,.028-4.443,2.7,2.7,0,0,1,.89-.609,2.589,2.589,0,0,1,1.032-.209,2.39,2.39,0,0,1,1.066.23,1.938,1.938,0,0,1,.726.614h.1l0-.639,1.507.01-.034,5.487a3.727,3.727,0,0,1-.238,1.343,2.907,2.907,0,0,1-.646,1.009,2.782,2.782,0,0,1-.987.633A3.482,3.482,0,0,1,910.034,747.77Zm.087-4.221a1.618,1.618,0,0,0,.573-.1,1.462,1.462,0,0,0,.5-.311,1.566,1.566,0,0,0,.353-.507,1.711,1.711,0,0,0,.137-.692,1.752,1.752,0,0,0-.128-.7,1.555,1.555,0,0,0-.347-.517,1.467,1.467,0,0,0-.5-.317,1.617,1.617,0,0,0-.572-.11,1.563,1.563,0,0,0-.567.1,1.428,1.428,0,0,0-.5.316,1.632,1.632,0,0,0-.353.513,1.877,1.877,0,0,0-.009,1.385,1.562,1.562,0,0,0,.346.511,1.478,1.478,0,0,0,.492.317A1.576,1.576,0,0,0,910.12,743.549Z" transform="translate(-863.138 -736.042)" fill="#fff"/>
        <path id="Path_4376" data-name="Path 4376" d="M1002.318,740.459h.1a2,2,0,0,1,.752-.7,2.187,2.187,0,0,1,1.075-.253,2.462,2.462,0,0,1,.976.187,1.79,1.79,0,0,1,.69.517,2.267,2.267,0,0,1,.4.8,3.6,3.6,0,0,1,.132,1.032l-.022,3.582-1.58-.01.021-3.389a1.359,1.359,0,0,0-.277-.949,1.067,1.067,0,0,0-.824-.313,1.152,1.152,0,0,0-.574.135,1.336,1.336,0,0,0-.424.371,1.693,1.693,0,0,0-.269.553,2.494,2.494,0,0,0-.095.681l-.018,2.894-1.58-.01.037-5.909,1.483.009Z" transform="translate(-949.414 -736.63)" fill="#fff"/>
        <path id="Path_4377" data-name="Path 4377" d="M1087.078,792.878a1.03,1.03,0,0,1-.74-.3.959.959,0,0,1-.3-.718.941.941,0,0,1,.312-.708,1.041,1.041,0,0,1,.744-.286,1.02,1.02,0,0,1,.734.3.951.951,0,0,1,.3.712.968.968,0,0,1-.306.714A1.009,1.009,0,0,1,1087.078,792.878Z" transform="translate(-1027.815 -783.871)" fill="#fff"/>
        <path id="Path_4378" data-name="Path 4378" d="M1126.2,715.271a3.574,3.574,0,0,1-1.06-.164,3.062,3.062,0,0,1-.926-.476,3.251,3.251,0,0,1-.731-.771,3.7,3.7,0,0,1-.488-1.058l1.535-.593a2.338,2.338,0,0,0,.584,1.083,1.488,1.488,0,0,0,1.107.435,1.783,1.783,0,0,0,.489-.063,1.44,1.44,0,0,0,.423-.19.936.936,0,0,0,.3-.318.9.9,0,0,0,.111-.446,1.076,1.076,0,0,0-.082-.435,1.016,1.016,0,0,0-.281-.364,2.525,2.525,0,0,0-.517-.329,7.894,7.894,0,0,0-.788-.331l-.529-.2a4.044,4.044,0,0,1-.7-.33,3.091,3.091,0,0,1-.642-.5,2.436,2.436,0,0,1-.472-.684,2.031,2.031,0,0,1-.182-.888,2.274,2.274,0,0,1,.2-.945,2.313,2.313,0,0,1,.572-.768,2.659,2.659,0,0,1,.884-.513,3.646,3.646,0,0,1,2.267,0,2.777,2.777,0,0,1,.805.451,2.492,2.492,0,0,1,.533.6,2.906,2.906,0,0,1,.3.617l-1.439.594a1.529,1.529,0,0,0-.436-.654,1.254,1.254,0,0,0-.873-.295,1.489,1.489,0,0,0-.882.242.757.757,0,0,0-.354.643.817.817,0,0,0,.333.659,3.681,3.681,0,0,0,1.07.531l.542.184a6.222,6.222,0,0,1,.944.422,2.972,2.972,0,0,1,.732.565,2.284,2.284,0,0,1,.466.745,2.62,2.62,0,0,1,.157.96,2.358,2.358,0,0,1-.279,1.162,2.486,2.486,0,0,1-.7.8,3.008,3.008,0,0,1-.956.464A3.649,3.649,0,0,1,1126.2,715.271Z" transform="translate(-1061.812 -706.038)" fill="#fff"/>
        <path id="Path_4379" data-name="Path 4379" d="M1206.963,723.608l-1.037-.007.008-1.351,1.037.007.011-1.809,1.58.01-.011,1.809,1.447.009-.008,1.351-1.448-.009-.015,2.361a1.726,1.726,0,0,0,.04.392.636.636,0,0,0,.161.305.6.6,0,0,0,.481.2.879.879,0,0,0,.556-.153l.438,1.39a2.618,2.618,0,0,1-.6.2,3.481,3.481,0,0,1-.706.062,2.157,2.157,0,0,1-.8-.147,1.7,1.7,0,0,1-.594-.391,2.1,2.1,0,0,1-.557-1.579Z" transform="translate(-1138.096 -719.099)" fill="#fff"/>
        <path id="Path_4380" data-name="Path 4380" d="M1274.42,748.5h-.1a2,2,0,0,1-.752.7,2.186,2.186,0,0,1-1.075.253,2.008,2.008,0,0,1-1.666-.7,2.853,2.853,0,0,1-.537-1.837l.022-3.582,1.58.01-.021,3.389a1.36,1.36,0,0,0,.277.949,1.068,1.068,0,0,0,.824.313,1.149,1.149,0,0,0,.574-.135,1.335,1.335,0,0,0,.425-.371,1.694,1.694,0,0,0,.269-.553,2.494,2.494,0,0,0,.095-.681l.018-2.894,1.58.01-.037,5.909-1.484-.009Z" transform="translate(-1197.303 -740.156)" fill="#fff"/>
        <path id="Path_4381" data-name="Path 4381" d="M1357.066,718.141h-.1a1.793,1.793,0,0,1-.679.635,2.233,2.233,0,0,1-1.135.258,2.559,2.559,0,0,1-1.078-.242,2.889,2.889,0,0,1-.9-.657,3.1,3.1,0,0,1-.615-1,3.611,3.611,0,0,1,.016-2.533,3.088,3.088,0,0,1,.627-.991,2.886,2.886,0,0,1,.909-.646,2.559,2.559,0,0,1,1.081-.228,2.233,2.233,0,0,1,1.132.272,1.8,1.8,0,0,1,.671.644h.1l-.091-.845.016-2.593,1.58.01-.054,8.635-1.484-.009Zm-1.576-.565a1.572,1.572,0,0,0,.6-.111,1.488,1.488,0,0,0,.5-.328,1.646,1.646,0,0,0,.353-.528,1.973,1.973,0,0,0,.009-1.423,1.653,1.653,0,0,0-.346-.533,1.494,1.494,0,0,0-.5-.335,1.578,1.578,0,0,0-.6-.118,1.507,1.507,0,0,0-.6.117,1.574,1.574,0,0,0-.5.334,1.649,1.649,0,0,0-.353.529,1.91,1.91,0,0,0-.009,1.4,1.644,1.644,0,0,0,.346.533,1.571,1.571,0,0,0,.5.341A1.512,1.512,0,0,0,1355.489,717.576Z" transform="translate(-1272.774 -709.688)" fill="#fff"/>
        <path id="Path_4382" data-name="Path 4382" d="M1446.55,711.337a1.02,1.02,0,0,1-.716-.3,1.014,1.014,0,0,1-.215-.321,1.05,1.05,0,0,1,0-.8,1.022,1.022,0,0,1,.219-.318,1.026,1.026,0,0,1,1.441.009,1,1,0,0,1-.009,1.435A1,1,0,0,1,1446.55,711.337Zm-.826,6.7.037-5.909,1.58.01-.037,5.909Z" transform="translate(-1358.507 -708.855)" fill="#fff"/>
        <path id="Path_4383" data-name="Path 4383" d="M1483.982,742.5a3.287,3.287,0,0,1,1.259.243,2.922,2.922,0,0,1,1.63,1.657,3.529,3.529,0,0,1-.016,2.533,2.924,2.924,0,0,1-1.651,1.636,3.494,3.494,0,0,1-2.521-.016,2.922,2.922,0,0,1-1.63-1.656,3.525,3.525,0,0,1,.016-2.533,2.923,2.923,0,0,1,1.651-1.636A3.289,3.289,0,0,1,1483.982,742.5Zm-.03,4.836a1.542,1.542,0,0,0,.585-.111,1.493,1.493,0,0,0,.5-.329,1.568,1.568,0,0,0,.347-.529,2.061,2.061,0,0,0,.009-1.423,1.573,1.573,0,0,0-.34-.533,1.492,1.492,0,0,0-.5-.335,1.55,1.55,0,0,0-.584-.118,1.532,1.532,0,0,0-.592.111,1.506,1.506,0,0,0-.5.328,1.568,1.568,0,0,0-.347.529,2.064,2.064,0,0,0-.009,1.423,1.565,1.565,0,0,0,.34.533,1.5,1.5,0,0,0,.492.335A1.533,1.533,0,0,0,1483.952,747.334Z" transform="translate(-1390.962 -739.382)" fill="#fff"/>
      </g>
    </g>
  </g>
</svg>
