<svg xmlns="http://www.w3.org/2000/svg" width="19" height="15.438" viewBox="0 0 19 15.438">
  <path id="Path_4330" data-name="Path 4330" d="M1682.9,16.975a8.555,8.555,0,0,1-1.967,2.041,2.188,2.188,0,0,1,.037.482,10.918,10.918,0,0,1-.742,3.915,12.358,12.358,0,0,1-2.1,3.563,10.007,10.007,0,0,1-3.506,2.616,11.119,11.119,0,0,1-4.75,1,10.817,10.817,0,0,1-5.975-1.744q.408.037.928.037a7.728,7.728,0,0,0,4.861-1.67,3.624,3.624,0,0,1-2.282-.761,3.87,3.87,0,0,1-1.355-1.911,7.022,7.022,0,0,0,.7.037,4.97,4.97,0,0,0,1.04-.111,3.789,3.789,0,0,1-1.6-.742,4.061,4.061,0,0,1-1.113-1.355,3.725,3.725,0,0,1-.409-1.726v-.074a3.668,3.668,0,0,0,1.744.52,3.868,3.868,0,0,1-1.187-5.233,10.9,10.9,0,0,0,8.016,4.082,5.354,5.354,0,0,1-.075-.89,3.777,3.777,0,0,1,1.132-2.746,3.69,3.69,0,0,1,2.728-1.151,3.76,3.76,0,0,1,2.857,1.225,7.926,7.926,0,0,0,2.486-.928,3.859,3.859,0,0,1-1.707,2.152,8.348,8.348,0,0,0,2.227-.63Z" transform="translate(-1663.895 -15.156)" fill="#fff"/>
</svg>
